<?xml version="1.0" encoding="UTF-8"?>
<svg id="Layer_2" data-name="Layer 2" xmlns="http://www.w3.org/2000/svg" width="2999.97" height="506.98" xmlns:xlink="http://www.w3.org/1999/xlink" viewBox="0 0 2999.97 506.98">
  <defs>
    <style>
      .cls-1 {
        fill: url(#linear-gradient);
      }

      .cls-2 {
        fill: #000;
      }
    </style>
    <linearGradient id="linear-gradient" x1="2606.76" y1="-76.35" x2="2606.76" y2="499.13" gradientUnits="userSpaceOnUse">
      <stop offset="0" stop-color="#56a23c"/>
      <stop offset="1" stop-color="#26813a"/>
    </linearGradient>
  </defs>
  <g id="Layer_1-2" data-name="Layer 1">
    <g>
      <path class="cls-2" d="M0,500.83V148.92h259.58v62.59H76.44v87.21h163.64v62.07H76.44v140.05H0Z"/>
      <path class="cls-2" d="M471.44,506.98c-32.15,0-59.76-5.13-82.85-15.39-23.08-10.26-40.78-25.73-53.1-46.42-12.31-20.69-18.47-46.42-18.47-77.2v-219.05h76.95v217c0,25.31,6.67,44.72,20.01,58.22,13.34,13.51,32.49,20.26,57.45,20.26s44.2-6.75,57.71-20.26c13.51-13.5,20.26-32.91,20.26-58.22v-217h76.95v219.05c0,30.78-6.16,56.52-18.47,77.2-12.31,20.7-30.01,36.17-53.1,46.42-23.08,10.26-50.87,15.39-83.36,15.39Z"/>
      <path class="cls-2" d="M702.79,500.83V148.92h70.28l141.59,189.81c2.05,2.4,4.62,5.73,7.69,10,3.08,4.28,5.98,8.46,8.72,12.57,2.73,4.1,4.62,7.36,5.64,9.75h2.56v-222.13h72.33v351.91h-70.28l-144.67-194.42c-3.42-4.79-7.01-10.08-10.77-15.9-3.77-5.81-6.5-10.26-8.21-13.34h-2.56v223.67h-72.33Z"/>
      <path class="cls-2" d="M1089.59,500.83V148.92h143.64c36.59,0,67.71,6.33,93.36,18.98,25.65,12.66,45.4,31.89,59.25,57.71,13.85,25.83,20.78,58.91,20.78,99.26s-6.93,73.02-20.78,99.01c-13.85,25.99-33.6,45.32-59.25,57.97-25.65,12.66-56.77,18.98-93.36,18.98h-143.64ZM1166.03,437.73h66.69c15.39,0,29.06-2.22,41.04-6.67,11.97-4.44,21.88-11.03,29.75-19.75,7.87-8.72,13.85-19.66,17.95-32.83,4.11-13.16,6.16-28.47,6.16-45.91v-15.39c0-17.44-2.05-32.74-6.16-45.91-4.1-13.16-10.09-24.11-17.95-32.83-7.87-8.72-17.78-15.39-29.75-20.01-11.98-4.62-25.65-6.92-41.04-6.92h-66.69v226.23Z"/>
      <path class="cls-2" d="M1468.69,500.83V148.92h281.12v62.59h-204.17v78.49h180.57v62.07h-180.57v85.67h207.25v63.1h-284.2Z"/>
      <path class="cls-2" d="M1819.07,500.83V148.92h143.64c36.59,0,67.71,6.33,93.36,18.98,25.65,12.66,45.4,31.89,59.25,57.71,13.85,25.83,20.78,58.91,20.78,99.26s-6.93,73.02-20.78,99.01c-13.85,25.99-33.6,45.32-59.25,57.97-25.65,12.66-56.77,18.98-93.36,18.98h-143.64ZM1895.5,437.73h66.69c15.39,0,29.06-2.22,41.04-6.67,11.97-4.44,21.88-11.03,29.75-19.75,7.87-8.72,13.85-19.66,17.95-32.83,4.11-13.16,6.16-28.47,6.16-45.91v-15.39c0-17.44-2.05-32.74-6.16-45.91-4.1-13.16-10.09-24.11-17.95-32.83-7.87-8.72-17.78-15.39-29.75-20.01-11.98-4.62-25.65-6.92-41.04-6.92h-66.69v226.23Z"/>
      <path class="cls-2" d="M2198.17,500.83V148.92h201.09c18.47,0,35.14,3.59,50.02,10.77,14.88,7.18,26.59,17.27,35.14,30.27,8.54,13,12.82,28.21,12.82,45.66,0,14.03-2.56,26.51-7.69,37.45-5.13,10.95-12.06,20.01-20.78,27.19-8.72,7.18-18.56,12.49-29.5,15.9v2.05c12.99,2.74,24.54,7.87,34.63,15.39,10.08,7.53,18.12,17.19,24.11,28.98,5.98,11.8,8.98,25.74,8.98,41.81,0,21.21-4.87,38.99-14.62,53.35-9.75,14.36-22.66,25.14-38.73,32.32-16.08,7.18-34.03,10.77-53.86,10.77h-201.61ZM2274.6,291.02h101.57c9.24,0,17.01-1.8,23.34-5.39,6.32-3.59,11.11-8.38,14.36-14.36,3.25-5.98,4.87-12.91,4.87-20.78,0-13.34-3.68-23.42-11.03-30.27-7.36-6.84-17.02-10.26-28.99-10.26h-104.14v81.05ZM2274.6,438.24h110.29c12.65,0,23-3.59,31.04-10.77,8.03-7.18,12.06-18.29,12.06-33.34,0-8.89-1.72-16.58-5.13-23.08-3.42-6.49-8.55-11.54-15.39-15.13-6.85-3.59-15.57-5.39-26.16-5.39h-106.7v87.72Z"/>
      <path class="cls-1" d="M2568.54,351.91V0h76.44v351.91h-76.44Z"/>
      <path class="cls-2" d="M2809.65,500.83V213.04h-112.86v-64.12h303.18v64.12h-113.37v287.79h-76.95Z"/>
    </g>
  </g>
</svg>
