<?xml version="1.0" encoding="UTF-8"?>
<svg id="Layer_2" data-name="Layer 2" xmlns="http://www.w3.org/2000/svg" xmlns:xlink="http://www.w3.org/1999/xlink" viewBox="0 0 1099.33 185.78">
  <defs>
    <style>
      .cls-1 {
        fill: #fff;
      }

      .cls-2 {
        fill: url(#linear-gradient);
      }
    </style>
    <linearGradient id="linear-gradient" x1="-778.29" y1="-378.13" x2="-777.29" y2="-378.13" gradientTransform="translate(80695.9 164101.7) rotate(90) scale(210.88 -210.88)" gradientUnits="userSpaceOnUse">
      <stop offset="0" stop-color="#56a23c"/>
      <stop offset="1" stop-color="#26813a"/>
      <stop offset="1" stop-color="#26813a"/>
    </linearGradient>
  </defs>
  <g id="Layer_1-2" data-name="Layer 1">
    <g>
      <polygon class="cls-1" points="0 183.53 0 54.57 95.12 54.57 95.12 77.5 28.01 77.5 28.01 109.46 87.98 109.46 87.98 132.21 28.01 132.21 28.01 183.53 0 183.53"/>
      <path class="cls-1" d="M172.76,185.78c-11.78,0-21.9-1.88-30.36-5.64-8.46-3.76-14.94-9.43-19.46-17.01-4.51-7.58-6.77-17.01-6.77-28.29V54.57h28.2v79.52c0,9.28,2.44,16.39,7.33,21.34,4.89,4.95,11.9,7.43,21.05,7.43s16.2-2.47,21.15-7.43c4.95-4.95,7.43-12.06,7.43-21.34V54.57h28.2v80.27c0,11.28-2.26,20.71-6.77,28.29-4.51,7.58-11,13.25-19.46,17.01-8.46,3.76-18.64,5.64-30.55,5.64"/>
      <path class="cls-1" d="M257.54,183.53V54.57h25.75l51.88,69.55c.75.88,1.69,2.1,2.82,3.67,1.13,1.57,2.19,3.1,3.2,4.61,1,1.5,1.69,2.7,2.07,3.57h.94V54.57h26.51v128.96h-25.75l-53.01-71.25c-1.25-1.75-2.57-3.7-3.95-5.83-1.38-2.13-2.38-3.76-3.01-4.89h-.94v81.96h-26.51Z"/>
      <path class="cls-1" d="M399.28,183.53V54.57h52.64c13.41,0,24.81,2.32,34.21,6.96,9.4,4.64,16.64,11.69,21.71,21.15,5.07,9.46,7.61,21.59,7.61,36.38s-2.54,26.76-7.61,36.28c-5.08,9.52-12.31,16.61-21.71,21.24-9.4,4.64-20.8,6.96-34.21,6.96h-52.64ZM427.29,160.41h24.44c5.64,0,10.65-.81,15.04-2.44,4.39-1.63,8.02-4.04,10.9-7.24,2.88-3.2,5.08-7.21,6.58-12.03,1.51-4.82,2.26-10.43,2.26-16.83v-5.64c0-6.39-.75-12-2.26-16.83-1.5-4.82-3.7-8.84-6.58-12.03-2.88-3.2-6.52-5.64-10.9-7.33-4.39-1.69-9.4-2.54-15.04-2.54h-24.44v82.9Z"/>
      <polygon class="cls-1" points="538.2 183.53 538.2 54.57 641.22 54.57 641.22 77.5 566.4 77.5 566.4 106.27 632.57 106.27 632.57 129.01 566.4 129.01 566.4 160.41 642.34 160.41 642.34 183.53 538.2 183.53"/>
      <path class="cls-1" d="M666.59,183.53V54.57h52.64c13.41,0,24.81,2.32,34.21,6.96,9.4,4.64,16.64,11.69,21.71,21.15,5.07,9.46,7.61,21.59,7.61,36.38s-2.54,26.76-7.61,36.28c-5.08,9.52-12.31,16.61-21.71,21.24-9.4,4.64-20.8,6.96-34.21,6.96h-52.64ZM694.6,160.41h24.44c5.64,0,10.65-.81,15.04-2.44,4.39-1.63,8.02-4.04,10.9-7.24,2.88-3.2,5.08-7.21,6.58-12.03,1.51-4.82,2.26-10.43,2.26-16.83v-5.64c0-6.39-.75-12-2.26-16.83-1.5-4.82-3.7-8.84-6.58-12.03-2.88-3.2-6.52-5.64-10.9-7.33-4.39-1.69-9.4-2.54-15.04-2.54h-24.44v82.9Z"/>
      <path class="cls-1" d="M805.52,183.53V54.57h73.69c6.77,0,12.88,1.32,18.33,3.95,5.45,2.63,9.74,6.33,12.88,11.09,3.13,4.76,4.7,10.34,4.7,16.73,0,5.14-.94,9.71-2.82,13.72-1.88,4.01-4.42,7.33-7.61,9.96-3.2,2.63-6.8,4.58-10.81,5.83v.75c4.76,1.01,8.99,2.89,12.69,5.64,3.69,2.76,6.64,6.3,8.83,10.62,2.19,4.32,3.29,9.43,3.29,15.32,0,7.77-1.79,14.29-5.36,19.55-3.57,5.26-8.3,9.21-14.19,11.84-5.89,2.63-12.47,3.95-19.74,3.95h-73.88ZM833.53,106.64h37.22c3.38,0,6.23-.66,8.55-1.97,2.32-1.32,4.07-3.07,5.26-5.26,1.19-2.19,1.79-4.73,1.79-7.61,0-4.89-1.35-8.58-4.04-11.09-2.7-2.51-6.24-3.76-10.62-3.76h-38.16v29.7ZM833.53,160.59h40.42c4.63,0,8.43-1.31,11.37-3.95,2.94-2.63,4.42-6.7,4.42-12.22,0-3.26-.63-6.08-1.88-8.46-1.25-2.38-3.13-4.23-5.64-5.54-2.51-1.32-5.7-1.97-9.59-1.97h-39.1v32.14Z"/>
      <rect class="cls-2" x="941.24" width="28.01" height="128.96"/>
      <polygon class="cls-1" points="1029.59 183.53 1029.59 78.07 988.23 78.07 988.23 54.57 1099.33 54.57 1099.33 78.07 1057.79 78.07 1057.79 183.53 1029.59 183.53"/>
    </g>
  </g>
</svg>